<svg width="24" height="24" viewBox="0 0 24 24" fill="none" xmlns="http://www.w3.org/2000/svg">
<path d="M12 21.75C13.9284 21.75 15.8134 21.1782 17.4168 20.1068C19.0202 19.0355 20.2699 17.5127 21.0078 15.7312C21.7458 13.9496 21.9389 11.9892 21.5627 10.0979C21.1864 8.20655 20.2579 6.46927 18.8943 5.10571C17.5307 3.74215 15.7934 2.81355 13.9021 2.43734C12.0108 2.06114 10.0504 2.25422 8.26883 2.99217C6.48725 3.73013 4.96451 4.97981 3.89317 6.58319C2.82182 8.18657 2.25 10.0716 2.25 12C2.25273 14.585 3.28083 17.0634 5.10872 18.8913C6.93661 20.7192 9.41497 21.7473 12 21.75ZM12 3.75C13.6317 3.75 15.2267 4.23385 16.5835 5.14038C17.9402 6.0469 18.9976 7.33537 19.622 8.84286C20.2464 10.3504 20.4098 12.0092 20.0915 13.6095C19.7731 15.2098 18.9874 16.6798 17.8336 17.8336C16.6798 18.9874 15.2098 19.7731 13.6095 20.0915C12.0091 20.4098 10.3503 20.2464 8.84286 19.622C7.33537 18.9976 6.04689 17.9402 5.14037 16.5835C4.23385 15.2267 3.75 13.6317 3.75 12C3.75248 9.81272 4.62247 7.71575 6.16911 6.16911C7.71574 4.62247 9.81272 3.75248 12 3.75ZM8.46937 15.5306C8.39964 15.461 8.34432 15.3783 8.30658 15.2872C8.26883 15.1962 8.24941 15.0986 8.24941 15C8.24941 14.9014 8.26883 14.8038 8.30658 14.7128C8.34432 14.6217 8.39964 14.539 8.46937 14.4694L13.1897 9.75L10.5 9.75C10.3011 9.75 10.1103 9.67098 9.96967 9.53033C9.82901 9.38968 9.75 9.19891 9.75 9C9.75 8.80109 9.82901 8.61032 9.96967 8.46967C10.1103 8.32902 10.3011 8.25 10.5 8.25L15 8.25C15.1989 8.25 15.3897 8.32902 15.5303 8.46967C15.671 8.61032 15.75 8.80109 15.75 9L15.75 13.5C15.75 13.6989 15.671 13.8897 15.5303 14.0303C15.3897 14.171 15.1989 14.25 15 14.25C14.8011 14.25 14.6103 14.171 14.4697 14.0303C14.329 13.8897 14.25 13.6989 14.25 13.5L14.25 10.8103L9.53062 15.5306C9.46097 15.6004 9.37825 15.6557 9.2872 15.6934C9.19615 15.7312 9.09856 15.7506 9 15.7506C8.90143 15.7506 8.80384 15.7312 8.71279 15.6934C8.62174 15.6557 8.53903 15.6004 8.46937 15.5306Z" fill="#008C4F"/>
</svg>
