<svg width="136" height="52" viewBox="0 0 136 52" fill="none" xmlns="http://www.w3.org/2000/svg">
<rect x="0.5" y="0.5" width="135" height="51" rx="5.5" fill="white"/>
<rect x="0.5" y="0.5" width="135" height="51" rx="5.5" stroke="#090909"/>
<path d="M26.8051 25.4617L17.0898 36.0059C17.0908 36.0078 17.0908 36.0106 17.0917 36.0125C17.3901 37.1574 18.412 38 19.6256 38C20.1111 38 20.5664 37.8656 20.957 37.6305L20.988 37.6118L31.9232 31.1593L26.8051 25.4617Z" fill="#EA4335"/>
<path d="M36.6312 23.6662L36.6221 23.6597L31.9009 20.8612L26.582 25.7013L31.9201 31.1582L36.6157 28.3878C37.4388 27.9324 37.9981 27.045 37.9981 26.0223C37.9981 25.0052 37.447 24.1225 36.6312 23.6662Z" fill="#FBBC04"/>
<path d="M17.0894 15.9932C17.031 16.2135 17 16.4449 17 16.6838V35.3163C17 35.5552 17.031 35.7866 17.0903 36.0059L27.1386 25.7313L17.0894 15.9932Z" fill="#4285F4"/>
<path d="M26.8771 26L31.9049 20.8594L20.9825 14.3836C20.5856 14.1401 20.122 14.0001 19.6265 14.0001C18.4129 14.0001 17.3891 14.8446 17.0908 15.9904C17.0908 15.9914 17.0898 15.9923 17.0898 15.9932L26.8771 26Z" fill="#34A853"/>
<path d="M52.61 17.71C52.61 18.71 52.3133 19.5067 51.72 20.1C51.0533 20.8067 50.1767 21.16 49.09 21.16C48.05 21.16 47.17 20.8 46.45 20.08C45.73 19.36 45.37 18.4733 45.37 17.42C45.37 16.3667 45.73 15.48 46.45 14.76C47.17 14.04 48.05 13.68 49.09 13.68C49.6167 13.68 50.1133 13.7733 50.58 13.96C51.0467 14.1467 51.43 14.41 51.73 14.75L51.07 15.41C50.85 15.1433 50.5633 14.9367 50.21 14.79C49.8633 14.6367 49.49 14.56 49.09 14.56C48.31 14.56 47.65 14.83 47.11 15.37C46.5767 15.9167 46.31 16.6 46.31 17.42C46.31 18.24 46.5767 18.9233 47.11 19.47C47.65 20.01 48.31 20.28 49.09 20.28C49.8033 20.28 50.3967 20.08 50.87 19.68C51.3433 19.28 51.6167 18.73 51.69 18.03H49.09V17.17H52.56C52.5933 17.3567 52.61 17.5367 52.61 17.71ZM57.9078 13.84V14.72H54.6478V16.99H57.5878V17.85H54.6478V20.12H57.9078V21H53.7278V13.84H57.9078ZM61.5877 14.72V21H60.6677V14.72H58.6677V13.84H63.5877V14.72H61.5877ZM67.6654 21H66.7454V13.84H67.6654V21ZM71.5487 14.72V21H70.6287V14.72H68.6287V13.84H73.5487V14.72H71.5487ZM83.521 17.42C83.521 18.48 83.1677 19.3667 82.461 20.08C81.7477 20.8 80.8743 21.16 79.841 21.16C78.801 21.16 77.9277 20.8 77.221 20.08C76.5143 19.3667 76.161 18.48 76.161 17.42C76.161 16.36 76.5143 15.4733 77.221 14.76C77.9277 14.04 78.801 13.68 79.841 13.68C80.881 13.68 81.7543 14.0433 82.461 14.77C83.1677 15.4833 83.521 16.3667 83.521 17.42ZM77.101 17.42C77.101 18.2467 77.361 18.93 77.881 19.47C78.4077 20.01 79.061 20.28 79.841 20.28C80.621 20.28 81.271 20.01 81.791 19.47C82.3177 18.9367 82.581 18.2533 82.581 17.42C82.581 16.5867 82.3177 15.9033 81.791 15.37C81.271 14.83 80.621 14.56 79.841 14.56C79.061 14.56 78.4077 14.83 77.881 15.37C77.361 15.91 77.101 16.5933 77.101 17.42ZM85.5267 21H84.6067V13.84H85.7267L89.2067 19.41H89.2467L89.2067 18.03V13.84H90.1267V21H89.1667L85.5267 15.16H85.4867L85.5267 16.54V21Z" fill="#090909"/>
<path d="M102.518 37.4097H104.147V26.3981H102.518V37.4097ZM117.189 30.3646L115.322 35.1388H115.266L113.328 30.3646H111.573L114.479 37.0371L112.823 40.749H114.521L119 30.3646H117.189ZM107.952 36.1588C107.418 36.1588 106.674 35.8902 106.674 35.2234C106.674 34.3742 107.6 34.0483 108.401 34.0483C109.116 34.0483 109.454 34.2042 109.889 34.4165C109.762 35.4365 108.892 36.1588 107.952 36.1588ZM108.148 30.1241C106.969 30.1241 105.747 30.6482 105.242 31.8101L106.688 32.4188C106.997 31.8101 107.572 31.611 108.176 31.611C109.019 31.611 109.875 32.121 109.889 33.0283V33.1411C109.594 32.971 108.963 32.7165 108.19 32.7165C106.632 32.7165 105.045 33.5806 105.045 35.1952C105.045 36.6689 106.323 37.6184 107.755 37.6184C108.85 37.6184 109.454 37.1225 109.833 36.5411H109.889V37.3912H111.461V33.1692C111.461 31.2146 110.015 30.1241 108.148 30.1241ZM98.0821 31.7053H95.7655V27.9308H98.0821C99.2998 27.9308 99.9911 28.9482 99.9911 29.8176C99.9911 30.6711 99.2998 31.7053 98.0821 31.7053ZM98.0402 26.3981H94.1375V37.4097H95.7655V33.2379H98.0402C99.8453 33.2379 101.62 31.9184 101.62 29.8176C101.62 27.7168 99.8453 26.3981 98.0402 26.3981ZM76.7583 36.1606C75.6332 36.1606 74.6913 35.2102 74.6913 33.9047C74.6913 32.5852 75.6332 31.6198 76.7583 31.6198C77.8695 31.6198 78.7406 32.5852 78.7406 33.9047C78.7406 35.2102 77.8695 36.1606 76.7583 36.1606ZM78.6289 30.9812H78.5722C78.2064 30.5417 77.5038 30.1444 76.6178 30.1444C74.7611 30.1444 73.0599 31.7898 73.0599 33.9047C73.0599 36.0047 74.7611 37.6369 76.6178 37.6369C77.5038 37.6369 78.2064 37.2396 78.5722 36.7851H78.6289V37.3251C78.6289 38.7582 77.8695 39.5246 76.6457 39.5246C75.6471 39.5246 75.0282 38.8005 74.7751 38.1901L73.3549 38.7864C73.7626 39.78 74.8458 41 76.6457 41C78.5582 41 80.1757 39.8646 80.1757 37.0978V30.3708H78.6289V30.9812ZM81.3008 37.4097H82.9323V26.3973H81.3008V37.4097ZM85.3362 33.777C85.2943 32.3298 86.4474 31.5916 87.2766 31.5916C87.9243 31.5916 88.4725 31.9176 88.6549 32.3862L85.3362 33.777ZM90.3989 32.528C90.0899 31.6912 89.1472 30.1444 87.2208 30.1444C85.3083 30.1444 83.7196 31.6621 83.7196 33.8907C83.7196 35.9906 85.2943 37.6369 87.4032 37.6369C89.1053 37.6369 90.0899 36.5869 90.4976 35.9765L89.2319 35.1247C88.8103 35.7493 88.2333 36.1606 87.4032 36.1606C86.5739 36.1606 85.983 35.7774 85.6033 35.0261L90.5674 32.9534L90.3989 32.528ZM50.8501 31.2939V32.883H54.6184C54.5058 33.777 54.2107 34.4297 53.7612 34.8834C53.2121 35.4374 52.3541 36.0479 50.8501 36.0479C48.5291 36.0479 46.7152 34.1602 46.7152 31.8189C46.7152 29.4767 48.5291 27.5899 50.8501 27.5899C52.1018 27.5899 53.0157 28.0867 53.6905 28.7254L54.8017 27.604C53.8589 26.6959 52.6081 26 50.8501 26C47.6719 26 45 28.6117 45 31.8189C45 35.0261 47.6719 37.6369 50.8501 37.6369C52.5653 37.6369 53.8589 37.0688 54.8715 36.0047C55.9129 34.9547 56.2358 33.4793 56.2358 32.2866C56.2358 31.9176 56.2079 31.5775 56.1512 31.2939H50.8501ZM60.5208 36.1606C59.3957 36.1606 58.425 35.2243 58.425 33.8907C58.425 32.5421 59.3957 31.6198 60.5208 31.6198C61.6451 31.6198 62.6158 32.5421 62.6158 33.8907C62.6158 35.2243 61.6451 36.1606 60.5208 36.1606ZM60.5208 30.1444C58.4669 30.1444 56.7936 31.7194 56.7936 33.8907C56.7936 36.0479 58.4669 37.6369 60.5208 37.6369C62.5739 37.6369 64.2472 36.0479 64.2472 33.8907C64.2472 31.7194 62.5739 30.1444 60.5208 30.1444ZM68.65 36.1606C67.5249 36.1606 66.5542 35.2243 66.5542 33.8907C66.5542 32.5421 67.5249 31.6198 68.65 31.6198C69.7752 31.6198 70.745 32.5421 70.745 33.8907C70.745 35.2243 69.7752 36.1606 68.65 36.1606ZM68.65 30.1444C66.597 30.1444 64.9237 31.7194 64.9237 33.8907C64.9237 36.0479 66.597 37.6369 68.65 37.6369C70.7031 37.6369 72.3764 36.0479 72.3764 33.8907C72.3764 31.7194 70.7031 30.1444 68.65 30.1444Z" fill="#090909"/>
</svg>
