<svg width="142" height="42" viewBox="0 0 142 42" fill="none" xmlns="http://www.w3.org/2000/svg">
<path d="M142.001 7.73633H137.637V34.4435H142.001V7.73633Z" fill="#008C4F"/>
<path d="M89.6112 7.73633H85.2468V23.3144C85.2468 24.5761 84.895 25.851 84.1654 26.9799C82.1721 30.0609 78.1204 30.9109 75.0979 28.8923C73.1827 27.604 72.1535 25.4792 72.1535 23.3144V7.73633H67.7891V23.3144C67.7891 26.9267 69.5218 30.4726 72.7007 32.6108C77.7426 35.9841 84.5042 34.5631 87.8133 29.4368C89.038 27.5509 89.6112 25.426 89.6112 23.3144V7.73633Z" fill="#008C4F"/>
<path d="M55.453 28.8923C53.5379 27.604 52.5088 25.4792 52.5088 23.3144V7.73633H48.1445V23.4871C48.1836 25.8112 48.9262 28.0954 50.3201 29.9945C50.9324 30.8179 51.662 31.5749 52.5088 32.2257C52.6911 32.3585 52.8735 32.4913 53.0559 32.6241C54.8667 33.8459 56.899 34.4303 58.9183 34.4568H65.6014V30.0078H59.0486C57.811 30.0078 56.5603 29.6493 55.453 28.9055V28.8923Z" fill="#008C4F"/>
<path d="M128.358 9.56886C123.511 6.31513 117.049 7.52366 113.623 12.2117C112.88 11.2024 111.981 10.2993 110.887 9.56886C105.845 6.1956 99.0836 7.61662 95.7744 12.7429C94.5498 14.6288 93.9766 16.7536 93.9766 18.8653V34.4433H98.341V18.8653C98.341 17.6036 98.6928 16.3287 99.4223 15.1998C101.416 12.1187 105.467 11.2688 108.49 13.2874C110.392 14.5624 111.421 16.674 111.434 18.8387C111.434 18.8387 111.434 18.852 111.434 18.8653V34.4433H115.799V18.8653C115.799 18.8653 115.799 18.8653 115.799 18.852C115.799 17.5903 116.15 16.3287 116.88 15.1998C118.873 12.1187 122.925 11.2688 125.948 13.2874C127.863 14.5756 128.892 16.7005 128.892 18.8653V34.4433H133.256V18.8653C133.256 15.2529 131.524 11.707 128.345 9.56886H128.358Z" fill="#008C4F"/>
<path d="M31.8468 25.7342C34.4122 18.8424 31.0111 11.1353 24.2504 8.52001C17.4896 5.9047 9.9292 9.37153 7.36381 16.2634C4.79841 23.1552 8.19945 30.8623 14.9602 33.4776C21.721 36.0929 29.2814 32.6261 31.8468 25.7342Z" fill="#008C4F"/>
<path d="M34.1523 9.36914C33.2925 10.2324 31.9116 10.2324 31.0648 9.36914C30.218 8.49262 30.218 7.08488 31.0648 6.22165C31.9246 5.35841 33.3055 5.35841 34.1523 6.22165C34.9991 7.09816 34.9991 8.5059 34.1523 9.36914Z" fill="#008C4F"/>
<path d="M34.1523 9.36914C33.2925 10.2324 31.9116 10.2324 31.0648 9.36914C30.218 8.49262 30.218 7.08488 31.0648 6.22165C31.9246 5.35841 33.3055 5.35841 34.1523 6.22165C34.9991 7.09816 34.9991 8.5059 34.1523 9.36914Z" fill="#008C4F"/>
<path d="M36.2899 13.2741C36.2899 13.2741 36.2768 13.2741 36.2638 13.2873C35.873 13.5795 35.7297 14.1107 35.899 14.5623C38.3613 21.0565 36.9543 28.7193 31.6649 33.8589C24.9554 40.393 14.2462 40.393 7.54977 33.8589C0.449431 26.9265 0.358233 15.4255 7.28921 8.38681C12.3572 3.24724 19.7311 1.93246 25.9716 4.41593C26.4276 4.60185 26.9357 4.44249 27.2223 4.04407C27.2223 4.04407 27.2223 4.03079 27.2353 4.01751C27.6522 3.43317 27.4307 2.60977 26.7663 2.34416C19.5617 -0.524441 11.0022 1.10907 5.30893 7.28453C-1.63507 14.8146 -1.79141 26.6476 4.98323 34.3503C12.5526 42.9561 25.5547 43.2483 33.4888 35.187C39.1821 29.3967 40.6673 20.9369 37.9314 13.7522C37.6709 13.0881 36.8631 12.8624 36.2899 13.2873V13.2741Z" fill="#008C4F"/>
</svg>
