<svg width="24" height="24" viewBox="0 0 24 24" fill="none" xmlns="http://www.w3.org/2000/svg">
<path d="M3.96896 14.4694L11.469 6.96945C11.5386 6.89971 11.6213 6.84439 11.7124 6.80665C11.8034 6.76891 11.901 6.74948 11.9996 6.74948C12.0981 6.74948 12.1957 6.76891 12.2868 6.80665C12.3778 6.84439 12.4606 6.89971 12.5302 6.96945L20.0302 14.4694C20.1709 14.6102 20.25 14.801 20.25 15.0001C20.25 15.1991 20.1709 15.39 20.0302 15.5307C19.8895 15.6714 19.6986 15.7505 19.4996 15.7505C19.3006 15.7505 19.1097 15.6714 18.969 15.5307L11.9996 8.56038L5.03021 15.5307C4.96052 15.6004 4.8778 15.6557 4.78675 15.6934C4.69571 15.7311 4.59813 15.7505 4.49958 15.7505C4.40104 15.7505 4.30345 15.7311 4.21241 15.6934C4.12137 15.6557 4.03864 15.6004 3.96896 15.5307C3.89927 15.461 3.844 15.3783 3.80629 15.2872C3.76858 15.1962 3.74916 15.0986 3.74916 15.0001C3.74916 14.9015 3.76858 14.8039 3.80629 14.7129C3.844 14.6219 3.89927 14.5391 3.96896 14.4694Z" fill="white"/>
</svg>
