<svg width="40" height="40" viewBox="0 0 40 40" fill="none" xmlns="http://www.w3.org/2000/svg">
<path d="M35.625 32.5V24.375C35.6244 23.8779 35.4267 23.4013 35.0752 23.0498C34.7237 22.6983 34.2471 22.5006 33.75 22.5H6.25C5.75289 22.5006 5.2763 22.6983 4.92479 23.0498C4.57328 23.4013 4.37556 23.8779 4.375 24.375V32.5H1.25V35.625C1.25057 36.1221 1.4483 36.5987 1.7998 36.9502C2.15131 37.3017 2.62789 37.4994 3.125 37.5H8.85751C8.98669 37.8656 9.22603 38.1821 9.54258 38.4059C9.85912 38.6298 10.2373 38.75 10.625 38.75C11.0127 38.75 11.3909 38.6298 11.7074 38.4059C12.024 38.1821 12.2633 37.8656 12.3925 37.5H26.9825C27.1117 37.8656 27.351 38.1821 27.6676 38.4059C27.9841 38.6298 28.3623 38.75 28.75 38.75C29.1377 38.75 29.5159 38.6298 29.8324 38.4059C30.149 38.1821 30.3883 37.8656 30.5175 37.5H36.875C37.3721 37.4994 37.8487 37.3017 38.2002 36.9502C38.5517 36.5987 38.7494 36.1221 38.75 35.625V32.5H35.625ZM28.125 32.5V28.75H29.375V30.625H30.625V28.75H34.375V32.5H28.125ZM15.625 25.625V23.75H19.375V27.5H13.125V23.75H14.375V25.625H15.625ZM23.125 25.625V23.75H26.875V27.5H20.625V23.75H21.875V25.625H23.125ZM14.375 28.75V30.625H15.625V28.75H19.375V32.5H13.125V28.75H14.375ZM20.625 28.75H21.875V30.625H23.125V28.75H26.875V32.5H20.625V28.75ZM34.375 24.375V27.5H28.125V23.75H29.375V25.625H30.625V23.75H33.75C33.9157 23.7502 34.0746 23.8161 34.1917 23.9333C34.3089 24.0504 34.3748 24.2093 34.375 24.375ZM6.25 23.75H6.875V25.625H8.125V23.75H11.875V27.5H5.625V24.375C5.62519 24.2093 5.6911 24.0504 5.80827 23.9333C5.92544 23.8161 6.0843 23.7502 6.25 23.75ZM5.625 28.75H6.875V30.625H8.125V28.75H11.875V32.5H5.625V28.75ZM10.625 37.5C10.5014 37.5 10.3805 37.4633 10.2778 37.3947C10.175 37.326 10.0949 37.2284 10.0476 37.1142C10.0003 37 9.98789 36.8743 10.012 36.7531C10.0361 36.6318 10.0956 36.5205 10.1831 36.4331C10.2705 36.3456 10.3818 36.2861 10.5031 36.262C10.6243 36.2379 10.75 36.2503 10.8642 36.2976C10.9784 36.3449 11.076 36.425 11.1447 36.5278C11.2133 36.6305 11.25 36.7514 11.25 36.875C11.2498 37.0407 11.1839 37.1996 11.0667 37.3167C10.9496 37.4339 10.7907 37.4998 10.625 37.5ZM28.75 37.5C28.6264 37.5 28.5056 37.4633 28.4028 37.3947C28.3 37.326 28.2199 37.2284 28.1726 37.1142C28.1253 37 28.1129 36.8743 28.137 36.7531C28.1611 36.6318 28.2206 36.5205 28.3081 36.4331C28.3955 36.3456 28.5068 36.2861 28.6281 36.262C28.7493 36.2379 28.875 36.2503 28.9892 36.2976C29.1034 36.3449 29.201 36.425 29.2697 36.5278C29.3383 36.6305 29.375 36.7514 29.375 36.875C29.3748 37.0407 29.3089 37.1996 29.1917 37.3167C29.0746 37.4339 28.9157 37.4998 28.75 37.5ZM37.5 35.625C37.4998 35.7907 37.4339 35.9496 37.3167 36.0667C37.1996 36.1839 37.0407 36.2498 36.875 36.25H30.5175C30.3883 35.8844 30.149 35.5679 29.8324 35.3441C29.5159 35.1202 29.1377 35 28.75 35C28.3623 35 27.9841 35.1202 27.6676 35.3441C27.351 35.5679 27.1117 35.8844 26.9825 36.25H12.3925C12.2633 35.8844 12.024 35.5679 11.7074 35.3441C11.3909 35.1202 11.0127 35 10.625 35C10.2373 35 9.85912 35.1202 9.54258 35.3441C9.22603 35.5679 8.98669 35.8844 8.85751 36.25H3.125C2.9593 36.2498 2.80044 36.1839 2.68327 36.0667C2.5661 35.9496 2.50019 35.7907 2.5 35.625V33.75H37.5V35.625Z" fill="#090909"/>
<path d="M5.4375 19.0502L14.1913 16.2882L14.5676 17.4807L5.81375 20.2427L5.4375 19.0502Z" fill="#090909"/>
<path d="M2.30859 20.0377L4.1844 19.4459L4.56065 20.6384L2.68484 21.2302L2.30859 20.0377Z" fill="#090909"/>
<path d="M5.90562 16.1627C6.14446 16.4026 6.44402 16.5731 6.77226 16.656C7.1005 16.7388 7.44508 16.7309 7.76918 16.6331L16.5593 14.053L15.8369 19.1098C15.7989 19.3758 15.8185 19.6468 15.8944 19.9045C15.9702 20.1622 16.1006 20.4006 16.2766 20.6035C16.4526 20.8064 16.6701 20.9692 16.9145 21.0807C17.1589 21.1923 17.4244 21.25 17.693 21.25H18.5217C18.8998 21.2516 19.2696 21.1381 19.5817 20.9246C19.8939 20.7111 20.1336 20.4076 20.2692 20.0546L23.4801 11.7979L32.0592 9.28967C32.3565 9.19979 32.6254 9.03439 32.8397 8.8096C33.054 8.58481 33.2064 8.30832 33.282 8.00709C33.3576 7.70585 33.3538 7.39017 33.2711 7.09083C33.1883 6.79148 33.0293 6.5187 32.8097 6.2991C32.2038 5.69249 31.4451 5.26102 30.614 5.05038C29.7829 4.83974 28.9103 4.85776 28.0886 5.10254L22.992 6.61773L16.3351 1.62502C16.0101 1.38234 15.6156 1.25083 15.2101 1.25H14.2124C13.8731 1.25 13.54 1.34211 13.2489 1.5165C12.9578 1.6909 12.7194 1.94104 12.5593 2.24025C12.3992 2.53947 12.3232 2.87654 12.3396 3.21551C12.356 3.55449 12.4641 3.88266 12.6523 4.16504L15.7273 8.77751L8.03731 11.0637C7.9294 11.0959 7.81478 11.0983 7.70562 11.0706C7.59645 11.043 7.4968 10.9863 7.41724 10.9066L6.43484 9.9242C6.26113 9.74954 6.05451 9.61107 5.82693 9.5168C5.59935 9.42252 5.35533 9.37433 5.109 9.375H3.64454C3.2737 9.375 2.91119 9.48496 2.60284 9.69098C2.2945 9.89701 2.05418 10.1898 1.91226 10.5324C1.77035 10.8751 1.73321 11.2521 1.80556 11.6158C1.8779 11.9795 2.05648 12.3136 2.3187 12.5758L5.90562 16.1627ZM13.6924 3.47168C13.6296 3.37755 13.5936 3.26816 13.5881 3.15516C13.5827 3.04217 13.608 2.92981 13.6614 2.83007C13.7147 2.73033 13.7942 2.64695 13.8912 2.58882C13.9883 2.53069 14.0993 2.49999 14.2124 2.5H15.2101C15.3453 2.50029 15.4768 2.54412 15.5851 2.62501L21.5001 7.06127L16.9811 8.40477L13.6924 3.47168ZM3.0671 11.0108C3.11305 10.8957 3.19283 10.7971 3.29592 10.7283C3.39901 10.6594 3.52056 10.6234 3.64454 10.625H5.109C5.19111 10.6248 5.27246 10.6408 5.34832 10.6723C5.42418 10.7037 5.49306 10.7498 5.55097 10.8081L6.53337 11.7905C6.7721 12.0295 7.07102 12.1995 7.39849 12.2825C7.72596 12.3655 8.06977 12.3584 8.39353 12.2619L22.7454 7.99517L22.7518 7.99999L22.7583 7.99132L28.4448 6.30073C29.0507 6.12027 29.6941 6.10698 30.3069 6.26229C30.9197 6.41759 31.4791 6.73571 31.9259 7.18296C31.9923 7.24946 32.0406 7.33199 32.0659 7.42256C32.0911 7.51313 32.0927 7.6087 32.0702 7.70003C32.0478 7.79136 32.0023 7.87536 31.9379 7.94394C31.8736 8.01251 31.7926 8.06334 31.7029 8.09151L24.0516 10.3284L24.3343 9.60152L23.1693 9.14848L19.1042 19.6016C19.059 19.7192 18.9791 19.8204 18.875 19.8916C18.771 19.9627 18.6477 20.0005 18.5217 20H17.693C17.6035 20 17.515 19.9808 17.4335 19.9436C17.3521 19.9064 17.2795 19.8522 17.2209 19.7845C17.1622 19.7169 17.1187 19.6374 17.0934 19.5515C17.0682 19.4656 17.0616 19.3753 17.0743 19.2866L18.1205 11.9634L16.8831 11.7866L16.7535 12.6933L7.41227 15.4351C7.30405 15.468 7.18893 15.4708 7.07924 15.4432C6.96955 15.4157 6.8694 15.3589 6.78949 15.2789L3.20256 11.6919C3.11376 11.6054 3.05327 11.494 3.02909 11.3724C3.0049 11.2508 3.01816 11.1247 3.0671 11.0108Z" fill="#090909"/>
<path d="M6.0625 5.16333L10.4394 3.78235L10.8157 4.97485L6.43875 6.35583L6.0625 5.16333Z" fill="#090909"/>
<path d="M2.9375 6.15039L4.8133 5.55855L5.18955 6.75105L3.31375 7.34289L2.9375 6.15039Z" fill="#090909"/>
<path d="M27.3203 12.8007L32.1141 11.2882L32.4903 12.4807L27.6966 13.9932L27.3203 12.8007Z" fill="#090909"/>
<path d="M24.1953 13.7881L26.0711 13.1962L26.4474 14.3887L24.5716 14.9806L24.1953 13.7881Z" fill="#090909"/>
<path d="M26.0742 2.53406L27.3248 2.13949L27.701 3.33199L26.4505 3.72656L26.0742 2.53406Z" fill="#090909"/>
<path d="M34.8281 3.16077L36.0787 2.7662L36.4549 3.9587L35.2044 4.35327L34.8281 3.16077Z" fill="#090909"/>
<path d="M35.4492 9.18237L36.6998 8.7878L37.076 9.9803L35.8255 10.3749L35.4492 9.18237Z" fill="#090909"/>
<path d="M22.9414 20.0271L23.3053 21.2229L36.4344 17.2271L35.668 19.1429L36.8287 19.6071L38.3108 15.9018L34.6055 14.4197L34.1413 15.5803L35.6152 16.1698L22.9414 20.0271Z" fill="#090909"/>
</svg>
