<svg width="40" height="40" viewBox="0 0 40 40" fill="none" xmlns="http://www.w3.org/2000/svg">
<g clip-path="url(#clip0_412_10464)">
<path d="M14.375 33.125V38.75C14.375 39.0938 14.6562 39.375 15 39.375H25C25.3438 39.375 25.625 39.0938 25.625 38.75V33.125C25.625 30.9563 24.0375 29.1562 21.9625 28.8125C23.0312 28.15 23.75 26.9688 23.75 25.625C23.75 23.5563 22.0687 21.875 20 21.875C17.9313 21.875 16.25 23.5563 16.25 25.625C16.25 26.975 16.9688 28.15 18.0375 28.8125C15.9625 29.1562 14.375 30.9563 14.375 33.125ZM17.5 25.625C17.5 24.2438 18.6188 23.125 20 23.125C21.3812 23.125 22.5 24.2438 22.5 25.625C22.5 27.0062 21.3812 28.125 20 28.125C18.6188 28.125 17.5 27.0062 17.5 25.625ZM18.75 30H21.25C22.975 30 24.375 31.4 24.375 33.125V38.125H15.625V33.125C15.625 31.4 17.025 30 18.75 30Z" fill="#090909"/>
<path d="M27.5 33.125V38.125C27.5 38.4688 27.7812 38.75 28.125 38.75H36.875C37.2188 38.75 37.5 38.4688 37.5 38.125V33.125C37.5 31.2625 36.1312 29.7125 34.35 29.425C35.2125 28.8313 35.7812 27.8438 35.7812 26.7188C35.7812 24.9062 34.3063 23.4375 32.5 23.4375C30.6937 23.4375 29.2188 24.9062 29.2188 26.7188C29.2188 27.8438 29.7875 28.8375 30.65 29.425C28.8688 29.7125 27.5 31.2562 27.5 33.125ZM30.4688 26.7188C30.4688 25.6 31.3812 24.6875 32.5 24.6875C33.6188 24.6875 34.5312 25.6 34.5312 26.7188C34.5312 27.8375 33.6188 28.75 32.5 28.75C31.3812 28.75 30.4688 27.8375 30.4688 26.7188ZM28.75 33.125C28.75 31.7437 29.8688 30.625 31.25 30.625H33.75C35.1312 30.625 36.25 31.7437 36.25 33.125V37.5H28.75V33.125Z" fill="#090909"/>
<path d="M28.125 14.375V1.875C28.125 1.1875 27.5625 0.625 26.875 0.625H13.125C12.4375 0.625 11.875 1.1875 11.875 1.875V14.375C11.875 15.0625 12.4375 15.625 13.125 15.625H18.3L19.4062 18.95C19.4937 19.2062 19.7312 19.375 20 19.375C20.2688 19.375 20.5063 19.2 20.5938 18.95L21.7 15.625H26.875C27.5625 15.625 28.125 15.0625 28.125 14.375ZM21.25 14.375C20.9812 14.375 20.7437 14.55 20.6562 14.8L20 16.7687L19.3438 14.8C19.2563 14.5437 19.0188 14.375 18.75 14.375H13.125V1.875H26.875V14.375H21.25Z" fill="#090909"/>
<path d="M38.125 5H30V6.25H38.125V17.5H33.5687C33.3187 17.5 33.0938 17.65 32.9938 17.8813L32.5 19.0375L32.0062 17.8813C31.9062 17.65 31.6813 17.5 31.4313 17.5H26.875V18.75H31.0188L31.925 20.8687C32.025 21.1 32.25 21.25 32.5 21.25C32.75 21.25 32.975 21.1 33.075 20.8687L33.9812 18.75H38.125C38.8125 18.75 39.375 18.1875 39.375 17.5V6.25C39.375 5.5625 38.8125 5 38.125 5Z" fill="#090909"/>
<path d="M2.5 33.125V38.125C2.5 38.4688 2.78125 38.75 3.125 38.75H11.875C12.2188 38.75 12.5 38.4688 12.5 38.125V33.125C12.5 31.2625 11.1313 29.7125 9.35 29.425C10.2125 28.8313 10.7812 27.8438 10.7812 26.7188C10.7812 24.9062 9.30625 23.4375 7.5 23.4375C5.69375 23.4375 4.21875 24.9062 4.21875 26.7188C4.21875 27.8438 4.7875 28.8375 5.65 29.425C3.86875 29.7125 2.5 31.2562 2.5 33.125ZM5.46875 26.7188C5.46875 25.6 6.38125 24.6875 7.5 24.6875C8.61875 24.6875 9.53125 25.6 9.53125 26.7188C9.53125 27.8375 8.61875 28.75 7.5 28.75C6.38125 28.75 5.46875 27.8375 5.46875 26.7188ZM3.75 33.125C3.75 31.7437 4.86875 30.625 6.25 30.625H8.75C10.1312 30.625 11.25 31.7437 11.25 33.125V37.5H3.75V33.125Z" fill="#090909"/>
<path d="M1.875 18.75H6.01875L6.925 20.8687C7.025 21.1 7.25 21.25 7.5 21.25C7.75 21.25 7.975 21.1 8.075 20.8687L8.98125 18.75H13.125V17.5H8.56875C8.31875 17.5 8.09375 17.65 7.99375 17.8813L7.5 19.0375L7.00625 17.8813C6.90625 17.65 6.68125 17.5 6.43125 17.5H1.875V6.25H10V5H1.875C1.1875 5 0.625 5.5625 0.625 6.25V17.5C0.625 18.1875 1.1875 18.75 1.875 18.75Z" fill="#090909"/>
<path d="M23.4 6.875H22.7562L23.0875 5.55625C23.275 4.80625 22.8625 4.05 22.1562 3.825C21.4375 3.6 20.6687 3.975 20.4 4.675L19.7812 6.33125C19.6625 6.65625 19.3437 6.875 19 6.875H18.75C18.75 6.53125 18.4687 6.25625 18.125 6.25625H15.625C15.2812 6.25625 15 6.5375 15 6.88125V11.8813C15 12.225 15.2812 12.5063 15.625 12.5063H18.125C18.4312 12.5063 18.675 12.2813 18.725 11.9938L19.3375 12.4C19.4375 12.4688 19.5625 12.5063 19.6812 12.5063H23.125C23.9375 12.5063 24.625 11.8938 24.7125 11.0813L24.9812 8.64375C25.0312 8.19375 24.8875 7.7375 24.5813 7.4C24.275 7.0625 23.8437 6.86875 23.3875 6.86875L23.4 6.875ZM17.5 11.2563H16.25V7.50625H17.5V11.2563ZM23.475 10.9438C23.4563 11.1188 23.3062 11.2563 23.1312 11.2563H19.875L19.0937 10.7375C18.9937 10.6688 18.8687 10.6313 18.75 10.6313V8.125H18.9937C19.8562 8.125 20.6437 7.58125 20.95 6.76875L21.5687 5.1125C21.5937 5.0375 21.6812 4.98125 21.7812 5.0125C21.8562 5.0375 21.9 5.15 21.875 5.24375L21.35 7.34375C21.3 7.53125 21.35 7.73125 21.4625 7.88125C21.575 8.03125 21.7625 8.11875 21.9563 8.11875H23.4C23.5375 8.11875 23.6187 8.19375 23.6625 8.2375C23.7062 8.28125 23.7625 8.375 23.75 8.50625L23.4812 10.9438H23.475Z" fill="#090909"/>
<path d="M31.949 14.0625L33.0178 14.875C33.1303 14.9625 33.2615 15 33.3928 15C33.524 15 33.6615 14.9562 33.7678 14.875L34.8365 14.0625C35.5115 13.55 36.0803 12.9125 36.5303 12.1625C37.0553 11.2937 36.9553 10.1625 36.2803 9.41875C35.8928 8.9875 35.3678 8.75 34.8053 8.75C34.2678 8.75 33.7678 8.96875 33.3865 9.3625C33.0053 8.96875 32.499 8.75 31.9678 8.75C31.4053 8.75 30.8803 8.9875 30.4928 9.41875C29.824 10.1625 29.7178 11.2937 30.2428 12.1625C30.6928 12.9125 31.2615 13.55 31.9365 14.0625H31.949ZM31.4303 10.2562C31.5803 10.0875 31.774 10 31.974 10C32.174 10 32.374 10.0937 32.524 10.2562L32.9365 10.7125C33.174 10.975 33.6303 10.975 33.8615 10.7125L34.274 10.2562C34.574 9.925 35.0678 9.925 35.3678 10.2562C35.6615 10.5875 35.7115 11.125 35.474 11.5188C35.1053 12.1313 34.6428 12.65 34.0928 13.0687L33.399 13.5938L32.7053 13.0687C32.1553 12.6562 31.6928 12.1313 31.324 11.5188C31.0865 11.1313 31.1365 10.5875 31.4303 10.2562Z" fill="#090909"/>
<path d="M4.0625 9.0625H5.3125V10.3125H4.0625V9.0625Z" fill="#090909"/>
<path d="M7.1875 9.0625H8.4375V10.3125H7.1875V9.0625Z" fill="#090909"/>
<path d="M6.25 14.6875C7.975 14.6875 9.375 13.2875 9.375 11.5625H8.125C8.125 12.5938 7.28125 13.4375 6.25 13.4375C5.21875 13.4375 4.375 12.5938 4.375 11.5625H3.125C3.125 13.2875 4.525 14.6875 6.25 14.6875Z" fill="#090909"/>
</g>
<defs>
<clipPath id="clip0_412_10464">
<rect width="40" height="40" fill="white"/>
</clipPath>
</defs>
</svg>
