<svg width="40" height="40" viewBox="0 0 40 40" fill="none" xmlns="http://www.w3.org/2000/svg">
<path d="M37.7405 36.4774L36.3476 34.8485C36.1624 34.6329 35.9046 34.5039 35.621 34.4852C35.3374 34.4664 35.0647 34.5618 34.853 34.7524L33.8679 35.6414L33.2155 34.4188C33.0007 34.0164 32.5562 33.8008 32.1093 33.8821L29.8788 34.2805L29.4733 32.9758C29.3632 32.6219 29.071 32.3508 28.7116 32.268L26.4335 31.7383C26.4288 31.6985 26.421 31.6571 26.4077 31.6141C26.2226 30.9852 25.771 30.5274 25.3976 30.1985C25.289 30.1024 25.1765 30.0086 25.0624 29.918C24.8077 27.5383 24.3718 23.2579 24.078 19.2391C24.5804 19.2289 25.0022 18.8946 25.2116 18.7274C26.1765 17.9571 26.9312 17.1094 27.7304 16.2125C28.0108 15.8977 28.3007 15.5719 28.5976 15.2539C28.6772 15.1688 28.8421 14.9922 28.8686 14.7352C28.9015 14.4336 28.7335 14.2055 28.6522 14.0954C27.6819 12.7844 26.628 11.3789 25.4936 9.98129C25.3616 9.81879 25.1983 9.61645 24.9546 9.47426C24.6897 9.32035 24.3991 9.28207 24.1866 9.25317C23.6202 9.17817 23.1694 9.11801 22.7499 9.06879C23.0632 8.89614 23.3593 8.63051 23.6132 8.28364C24.0522 7.68364 24.3046 6.93051 24.3046 6.21567C24.3046 4.73207 23.3022 3.65551 21.921 3.65551C20.5397 3.65551 19.5366 4.73207 19.5366 6.21567C19.5366 7.30785 20.0874 8.35785 20.8319 8.90551C20.6311 8.89457 20.4155 8.88364 20.1804 8.87348C20.0288 8.86645 19.8655 8.8602 19.696 8.86254C19.2624 8.86957 18.3577 9.18051 18.0436 9.57973C17.3632 10.4469 16.5999 11.4368 16.0061 12.3211C15.8108 12.15 15.6155 11.9868 15.421 11.8461C14.8429 11.4266 14.164 11.0008 13.4022 10.8782L12.0327 1.22035C11.9968 0.964105 11.7593 0.785199 11.503 0.821917C11.2468 0.857855 11.0686 1.09535 11.1046 1.3516L11.2397 2.30395C11.0561 2.2477 10.8663 2.20082 10.6686 2.1727C10.0913 2.08832 9.54599 2.1852 9.13427 2.44379C8.5874 2.78754 8.33818 3.34535 8.11787 3.83754C8.06083 3.9641 8.00771 4.08442 7.95068 4.1977C7.31005 5.47348 5.82802 6.35707 4.33427 6.35707C4.32099 6.35707 4.30693 6.35707 4.29365 6.35707C4.09521 6.35551 3.91552 6.47895 3.84755 6.66645C3.77958 6.85395 3.83818 7.06332 3.99287 7.1891C4.51786 7.61645 5.31708 8.17426 6.14287 8.40942C6.51083 8.51489 6.88036 8.56723 7.23974 8.56723C7.72099 8.56723 8.18349 8.47348 8.59677 8.28676C9.03193 8.09067 9.38427 7.80707 9.72646 7.53286C10.0382 7.28207 10.3335 7.04536 10.6632 6.89848C11.0749 6.71489 11.4647 6.67504 11.8749 6.77582L12.4671 10.9516C12.4397 10.9672 12.4124 10.9844 12.3851 11.0047C12.2679 11.093 12.1811 11.2141 12.1319 11.3571C12.0343 11.6508 12.1296 11.9563 12.2288 12.1641C12.2366 12.1813 12.2452 12.1993 12.2561 12.2204C12.414 12.5266 12.5874 12.825 12.7733 13.1149L15.1061 29.5711L14.2007 29.9821C13.9015 30.1172 13.6804 30.3899 13.6101 30.7118L13.0108 33.4594L11.6804 33.9422L10.9233 32.493C10.7561 32.1735 10.4429 31.9649 10.0835 31.9352L8.17958 31.7774C7.77412 31.7454 7.38193 31.9532 7.18349 32.3071C6.57333 33.3922 6.03427 34.3493 5.57333 35.168L4.19052 34.6907C3.86552 34.5774 3.50537 34.6321 3.22724 34.8368L1.10458 36.4032C0.89599 36.5571 0.85224 36.85 1.00536 37.0586C1.09755 37.1829 1.23896 37.2493 1.38271 37.2493C1.47958 37.2493 1.57724 37.2196 1.66083 37.1579L3.78271 35.5922C3.81161 35.5711 3.84911 35.5649 3.88349 35.5774L5.10536 35.9993C4.25302 37.511 3.76474 38.3758 3.71318 38.4625C3.5788 38.6774 3.63896 38.961 3.85146 39.1024C3.93115 39.1555 4.02099 39.1805 4.11005 39.1805C4.26162 39.1805 4.41083 39.1071 4.50146 38.9711C4.52021 38.9422 4.56474 38.875 8.00146 32.7672C8.02177 32.7305 8.06162 32.7094 8.1038 32.7133L10.0061 32.8711C10.0429 32.8743 10.0757 32.8961 10.0929 32.9289L10.7921 34.2664L9.74833 34.6454C9.4288 34.761 9.18427 35.0266 9.09521 35.3547L8.5913 37.2102C8.52333 37.4602 8.67099 37.7172 8.92099 37.7852C8.9624 37.7961 9.0038 37.8016 9.04443 37.8016C9.25068 37.8016 9.43974 37.6641 9.49677 37.4555L10.0007 35.6C10.0101 35.5657 10.0351 35.5383 10.0686 35.5266L12.7757 34.5438L12.3561 36.4672C12.3007 36.7204 12.4616 36.9704 12.714 37.025C12.9671 37.0797 13.2163 36.9196 13.2718 36.6672L13.8538 34.0008C13.8804 33.9422 13.8944 33.8782 13.8952 33.8125L14.528 30.9141C14.5358 30.8805 14.5577 30.8524 14.5897 30.8383L17.5163 29.5102C17.5304 29.504 17.5397 29.5016 17.5436 29.5008C17.5515 29.4993 17.5601 29.4985 17.5663 29.4985H20.2108C20.264 29.4985 20.3085 29.5368 20.3179 29.5891L20.5007 30.6625C20.5718 31.0782 20.8827 31.4094 21.2952 31.5063L28.5054 33.1813C28.5429 33.1899 28.5718 33.2172 28.5835 33.2547L29.8952 37.4735C29.9577 37.6743 30.1429 37.8032 30.3429 37.8032C30.389 37.8032 30.4358 37.7961 30.4819 37.7821C30.7288 37.7055 30.8671 37.4422 30.7905 37.1954L30.1647 35.1836L32.2804 34.8055C32.3257 34.7969 32.3718 34.8196 32.3937 34.861L34.3718 38.5664C34.4562 38.7243 34.6179 38.8149 34.7858 38.8149C34.8601 38.8149 34.9358 38.7969 35.0061 38.7594C35.2343 38.6375 35.321 38.3532 35.1991 38.125L34.3288 36.4938L35.4866 35.4493C35.5147 35.4235 35.546 35.4204 35.5671 35.4211C35.5882 35.4227 35.6179 35.4305 35.6421 35.4586L37.0343 37.0868C37.1272 37.1954 37.2585 37.2508 37.3905 37.2508C37.4983 37.2508 37.6069 37.2141 37.6952 37.1383C37.8921 36.9704 37.9147 36.6743 37.7468 36.4774H37.7405ZM20.471 6.21645C20.471 5.24614 21.0522 4.59379 21.9179 4.59379C22.7835 4.59379 23.364 5.24614 23.364 6.21645C23.364 7.32035 22.5491 8.35942 21.9179 8.35942C21.2866 8.35942 20.471 7.32035 20.471 6.21645ZM24.0632 15.8657C24.0702 15.4836 24.0819 15.0844 24.0944 14.6914C24.1069 14.2836 24.1194 13.8696 24.1265 13.4719C24.489 13.8758 24.8585 14.2743 25.2327 14.6641C24.8327 15.0532 24.4421 15.4555 24.0632 15.8657ZM14.8671 12.6055C15.1921 12.8414 15.5468 13.1688 15.8905 13.4852C16.0374 13.6204 16.1757 13.7477 16.3108 13.8672C16.5046 14.0391 16.8007 14.0211 16.9726 13.8274C17.1444 13.6336 17.1265 13.3375 16.9327 13.1657C16.8593 13.1008 16.7827 13.0313 16.7046 12.9594C17.2905 12.0735 18.0772 11.0508 18.7757 10.1618C18.8929 10.0305 19.4772 9.80395 19.7077 9.80004C19.8507 9.79848 19.9968 9.80317 20.1343 9.80942C21.8116 9.88285 22.4694 9.97036 24.0601 10.1813C24.2093 10.2008 24.378 10.2235 24.4804 10.2829C24.5749 10.3383 24.6702 10.4563 24.7632 10.5704C25.8827 11.9493 26.9257 13.3407 27.8866 14.6383C27.5905 14.9571 27.3046 15.2774 27.028 15.5883C26.2561 16.4547 25.5272 17.2735 24.6249 17.9938C24.2905 18.2602 24.0991 18.343 23.964 18.2797C23.871 18.236 23.8069 18.1243 23.7999 17.9938C23.789 17.8008 23.8491 17.6157 23.9936 17.393C24.0976 17.2344 24.2358 17.0743 24.3569 16.9375C24.946 16.2727 25.5726 15.6258 26.2186 15.0157C26.3101 14.9297 26.3632 14.8102 26.3655 14.6844C26.3679 14.5586 26.3202 14.4375 26.2319 14.3477C25.4679 13.5664 24.7186 12.7461 24.0061 11.9118C23.8765 11.7594 23.6647 11.7071 23.478 11.7797C23.2921 11.8532 23.1726 12.036 23.1811 12.236C23.2101 12.9079 23.1827 13.8 23.1569 14.6618C23.1319 15.4829 23.1061 16.3297 23.128 17.0133C22.9311 17.3571 22.8444 17.6969 22.864 18.0454C22.878 18.3016 22.9624 18.5391 23.1007 18.7344C23.4022 23.0407 23.8866 27.7672 24.1507 30.2157C24.1647 30.3446 24.2311 30.4618 24.3343 30.5399C24.4858 30.6539 24.6343 30.775 24.7772 30.9008C24.9647 31.0664 25.114 31.2188 25.2288 31.3649C24.9468 31.3274 24.6476 31.2711 24.3179 31.1938C23.9905 31.1172 23.6694 31.0297 23.3288 30.9368C23.1554 30.8891 22.978 30.8407 22.7976 30.7938C22.4897 28 22.1944 24.5555 21.9335 21.5032C21.864 20.693 21.7968 19.9125 21.7335 19.1813C21.7147 18.9696 21.5569 18.7977 21.3483 18.7602C21.139 18.7227 20.9319 18.8313 20.8421 19.0235C20.5343 19.6829 20.0335 20.6602 19.7124 21.1735C19.3405 21.7688 18.9538 22.8086 18.8804 23.0125C18.7952 23.2477 18.8226 23.4719 18.8429 23.636C18.8476 23.6743 18.8522 23.7125 18.8554 23.7524C18.9624 25.1508 19.014 26.5641 19.0101 27.9563C18.5499 28.2196 17.9929 28.3438 17.3327 28.4735L17.2921 28.4813C17.1874 28.5016 17.0819 28.5204 16.9788 28.5344C17.139 28.2782 17.3624 28.0508 17.6319 27.8149C17.746 27.7149 17.8046 27.5665 17.7897 27.4157C17.7046 26.5547 17.6858 25.8368 17.6671 25.143C17.6436 24.2891 17.6218 23.4829 17.4757 22.5727C17.4718 22.5508 17.4679 22.5282 17.464 22.5063C17.4608 22.4883 17.4561 22.4664 17.4538 22.4493C17.4585 22.4399 17.4647 22.4297 17.4694 22.4211C17.4882 22.3875 17.5069 22.3539 17.5241 22.3172L17.703 21.936C18.3851 20.4805 19.4155 18.2805 20.1397 17.1907C20.1952 17.1079 20.2218 17.0094 20.2179 16.9102C20.1382 15.1657 20.0452 14.2821 19.7663 12.6157C19.7374 12.4422 19.6132 12.2993 19.4452 12.2461C19.2772 12.193 19.0936 12.2383 18.9702 12.3641C18.221 13.1235 17.4452 13.8868 16.6647 14.6329C16.4772 14.8118 16.1733 15.0375 15.903 15.1836C15.0366 14.5063 14.2796 13.6875 13.6702 12.7766L13.5413 11.868C14.0038 12.0094 14.4483 12.2977 14.8686 12.6024L14.8671 12.6055ZM10.278 6.04379C9.8374 6.23989 9.48115 6.5266 9.13583 6.80395C8.82646 7.05239 8.53427 7.28754 8.20849 7.43442C7.69599 7.66567 7.03583 7.69301 6.39677 7.5102C6.1413 7.43754 5.85771 7.31254 5.55927 7.14223C6.94365 6.79145 8.16005 5.86723 8.78583 4.62035C8.85224 4.48754 8.9124 4.35317 8.97099 4.22192C9.15302 3.81567 9.32411 3.43129 9.63037 3.2391C9.8538 3.09848 10.1741 3.05004 10.5319 3.10239C10.8163 3.14301 11.0968 3.2391 11.3851 3.35004L11.7327 5.80395C11.2444 5.75082 10.7569 5.83051 10.278 6.04379ZM15.5632 16.1071C15.6905 16.2016 15.8577 16.225 16.0069 16.1688C16.4686 15.9954 17.0069 15.6039 17.3116 15.3133C17.8749 14.775 18.4351 14.2282 18.9851 13.6797C19.1421 14.7375 19.2132 15.5383 19.2733 16.8047C18.5194 17.9852 17.5218 20.1141 16.853 21.5407L16.6757 21.9188C16.6679 21.9344 16.6593 21.95 16.6507 21.9657C16.6108 22.0375 16.5499 22.1454 16.5265 22.2821C16.4968 22.443 16.5226 22.5805 16.5413 22.6813C16.5444 22.6969 16.5468 22.7125 16.5491 22.7258C16.6851 23.5727 16.7054 24.3133 16.728 25.1711C16.7452 25.818 16.764 26.4852 16.8335 27.2743C16.4538 27.6282 16.1022 28.0422 15.9124 28.6086L13.9311 14.6313C14.4257 15.175 14.9726 15.6711 15.5632 16.1079V16.1071ZM21.4186 30.5047L21.2358 29.4305C21.1491 28.9266 20.7155 28.561 20.2054 28.561H19.7936C19.889 28.4735 19.9444 28.35 19.9452 28.2196C19.9569 26.7188 19.9046 25.193 19.789 23.6852C19.7851 23.6321 19.7788 23.5782 19.7718 23.5243C19.764 23.4594 19.7522 23.3625 19.7601 23.3352C19.8015 23.2204 20.1772 22.2 20.5061 21.6735C20.6343 21.4688 20.7851 21.2032 20.9413 20.9133C20.9601 21.1352 20.9796 21.3594 20.9991 21.586C21.2538 24.5618 21.5405 27.9086 21.8413 30.6719L21.5022 30.593C21.4593 30.5829 21.4265 30.5485 21.4194 30.5055L21.4186 30.5047Z" fill="#090909"/>
</svg>
